P1
10 15
0000000000
0000000000
0000000000
0001111000
0010000100
0100000010
0100000010
0100000010
0100000010
0010000100
0001111000
0000000000
0000000000
0000000000
0000000000
