P2
20 2
65535
55491 1898 26841 39283 55683 42897 15433 56828 31736 10288 20533 43839 48534 
14660 5797 53590 35310 58285 3624 44063 44894 36561 47229 42940 6821 28454 
4030 21943 45974 44815 48832 3937 24156 36058 63798 10810 8371 58190 61672 
49192 
