P2
9 9
255
47 46 44 45 46 47 50 55 56 
48 47 44 45 46 47 51 55 57 
51 49 47 45 46 48 51 56 61 
52 50 47 45 46 49 54 58 63 
52 51 45 43 43 49 54 61 64 
52 50 46 43 43 48 52 60 66 
50 49 45 43 42 46 50 59 65 
51 51 46 43 39 43 47 56 65 
50 51 45 44 42 43 49 56 65 
