P3
6 1
255
160 82 45 0 128 0 50 205 50 46 139 87 255 255 0 0 255 255 
