<?xml version="1.0" standalone="yes"?>
<svg width="76" height="68">
<path style="fill:#ffffff; stroke:none;" d="M0 0L0 68L76 68L76 0L0 0z"/>
<path style="fill:#000000; stroke:none;" d="M46 21L42 19L42 17L53 15C47.0523 21.6102 43.5999 30.7759 36.8264 36.6057C30.5563 42.0022 26.3623 38.0502 28 31C12.7937 26.6328 -4.66014 49.6783 11.0432 60.0054C21.2845 66.7405 35.2835 61.514 41.6127 51.9853C43.6438 48.9274 46.0438 39.3942 50.0648 38.6312C54.1476 37.8564 51.7875 54.104 61.0008 53.6775C67.6689 53.3688 71.4475 46.9424 70 41C63.7377 40.3866 63.2139 35.4327 64.2901 30C65.1242 25.7897 72.0226 15.2383 69.716 11.6034C67.8526 8.66678 60.0791 10.0177 57 9.23997C47.3876 6.81214 16.65 0.354721 23.6535 21.9599C27.2161 32.9498 41.9525 29.277 46 21z"/>
<path style="fill:#ffffff; stroke:none;" d="M59 18C56.0783 21.4368 50.1958 27.2654 55 31L59 18z"/>
</svg>
